<svg xmlns="http://www.w3.org/2000/svg" width="201" height="48" fill="none"><path fill="url(#a)" d="M36 47.15H1.01v-7.72a747 747 0 0 0 9.93-7.49q3.72-2.85 6.88-5.54a39 39 0 0 0 4.66-4.56 16 16 0 0 0 2.3-3.54q.83-1.73.83-3.47 0-2.9-2.22-4.45a9 9 0 0 0-5.3-1.6A16.6 16.6 0 0 0 5.6 14.12L0 7.59A20.5 20.5 0 0 1 8.03 1.9 26 26 0 0 1 17.89 0q4.96 0 8.98 1.77a14.7 14.7 0 0 1 6.4 5.17 13.4 13.4 0 0 1 2.38 7.9q0 5.67-4.52 11.15-4.5 5.48-14.09 12.45H36z"/><path fill="url(#b)" d="M61.13 48q-4.8 0-8.57-2.04a17 17 0 0 1-6.06-5.51 27 27 0 0 1-3.43-7.66 33 33 0 0 1-1.16-8.84q0-4.63 1.16-8.81a26 26 0 0 1 3.43-7.62 16.6 16.6 0 0 1 6.06-5.48A18 18 0 0 1 61.13 0q4.8 0 8.54 2.04a16.6 16.6 0 0 1 6.05 5.48 26 26 0 0 1 3.44 7.62q1.2 4.18 1.2 8.8 0 3.69-.72 7.12a26 26 0 0 1-2.28 6.53 22 22 0 0 1-3.74 5.4 16 16 0 0 1-5.45 3.65A18 18 0 0 1 61.13 48m0-8.78q3.2 0 5.27-2.07 2.12-2.08 2.96-5.38.9-3.33.89-7.82 0-3.33-.51-5.99-.5-2.68-1.57-4.8a7.6 7.6 0 0 0-2.82-3.23 7.6 7.6 0 0 0-4.22-1.15 7.7 7.7 0 0 0-4.25 1.15 8 8 0 0 0-2.86 3.24q-1.05 2.1-1.56 4.8a32 32 0 0 0-.51 5.98q0 3.33.5 6.02.52 2.7 1.57 4.83 1.06 2.1 2.86 3.27a7.7 7.7 0 0 0 4.25 1.15"/><path fill="#c0bb3b" d="M91.08 13.47v-1.6q.45 0 .74-.14.3-.15.56-.52.27-.38.44-1.1.18-.71.3-1.85l.61-5.3h7.01v10.32h-1.8V4.55h-3.58l-.44 3.84a16 16 0 0 1-.63 2.93 4 4 0 0 1-1.02 1.54q-.28.24-.65.38-.36.14-.72.18-.36.05-.82.05M110 13.28h-7.07V2.96h7.08v1.6h-5.26v2.67h5.15v1.6h-5.15v2.86H110zM116.15 13.28h-1.82V4.55h-3.13v-1.6h8.07v1.6h-3.12zM91.74 18.44h7.08v1.6h-5.26v2.25h2.72q1.56 0 2.46.94.92.93.92 2.3t-.9 2.3a3.3 3.3 0 0 1-2.48.93h-4.54zm4.3 5.45h-2.48v3.28h2.48q.77 0 1.26-.45.5-.45.5-1.2 0-.73-.5-1.18t-1.26-.45M108.24 28.76h-7.08V18.44h7.08v1.6h-5.26v2.67h5.15v1.6h-5.15v2.86h5.26zM113.46 28.95q-1.33 0-2.44-.47a4 4 0 0 1-1.65-1.2l.98-1.2q.5.59 1.34.92.87.34 1.71.34 1.09 0 1.73-.42.63-.43.62-1.16 0-1.46-2.5-1.46h-2.06v-1.6h2.07q1.04 0 1.68-.33.64-.35.64-1.02 0-.7-.65-1.08a3 3 0 0 0-1.64-.38 4.1 4.1 0 0 0-2.85 1.15l-.92-1.13q.6-.72 1.65-1.17t2.3-.45a5 5 0 0 1 2.81.75 2.34 2.34 0 0 1 .92 2.95q-.2.42-.53.71a3 3 0 0 1-1.52.73q.4.04.8.22t.77.47q.36.3.6.78t.23 1.04q0 1.32-1.15 2.17-1.16.84-2.94.84M120.6 28.95q-.65 0-1.25-.22-.6-.2-.86-.5l.65-1.48q.68.6 1.35.6.6 0 .94-.29.35-.28.74-1.03l-3.88-7.6h2.05l2.85 6.03 2.85-6.02h2.06l-4.3 8.39q-.26.5-.53.86-.28.36-.64.66-.37.3-.88.45-.5.15-1.14.15M138.22 28.76h-1.8v-8.73h-5.38v8.73h-1.81V18.44h9zM142.23 28.76h-1.82V18.44h4.54q1.56 0 2.47.94.9.93.9 2.3 0 1.35-.9 2.3-.91.93-2.47.93h-2.72zm2.48-5.45q.76 0 1.26-.45t.5-1.19-.5-1.18a1.8 1.8 0 0 0-1.26-.46h-2.48v3.28zM156.9 28.76h-7.07V18.44h7.08v1.6h-5.26v2.67h5.15v1.6h-5.15v2.86h5.26zM160.29 18.44v2.73q0 1.1.53 1.62.52.52 1.56.52 1.18 0 2.15-.38v-4.5h1.81v10.33h-1.81v-4.24q-1.07.39-2.34.39-1.84 0-2.79-1a3.9 3.9 0 0 1-.93-2.74v-2.73zM177.53 28.76h-1.8v-4.5h-5.38v4.5h-1.81V18.44h1.81v4.22h5.38v-4.22h1.8zM184.54 28.95a5.4 5.4 0 0 1-2.74-.68 5 5 0 0 1-1.87-1.91 5.7 5.7 0 0 1-.67-2.75q0-1.52.67-2.75a5 5 0 0 1 1.87-1.9q1.2-.7 2.74-.7a5.5 5.5 0 0 1 3.8 1.52 5 5 0 0 1 1.09 1.7q.4.99.4 2.13t-.4 2.13a4.96 4.96 0 0 1-2.77 2.81q-.98.4-2.12.4m0-1.6q1.53 0 2.48-1.07.94-1.06.94-2.67 0-1.62-.94-2.68a3.2 3.2 0 0 0-2.48-1.06q-1.55 0-2.48 1.06-.94 1.05-.94 2.68 0 1.62.94 2.67.93 1.06 2.48 1.06M193.32 28.76h-1.76V18.44h1.82v7.16l5.27-7.16h1.86v10.32h-1.8V21.4zm5.43-12.21a3.3 3.3 0 0 1-2.71 1.36 3.3 3.3 0 0 1-2.72-1.36l.74-.62a2.3 2.3 0 0 0 1.98 1.02q.6 0 1.12-.27.5-.27.84-.75zM93.56 44.25h-1.82V33.92h4.54q1.56 0 2.47.94.9.92.9 2.3 0 1.36-.9 2.3-.91.93-2.47.93h-2.72zm2.48-5.45q.77 0 1.26-.46.5-.45.5-1.18 0-.74-.5-1.2-.5-.44-1.26-.44h-2.48v3.28zM109.29 44.25h-2.06l-.76-1.98h-4.73l-.77 1.98h-2.05l4.06-10.33h2.26zm-3.33-3.58-1.86-4.92-1.85 4.92zM110.42 33.92h7.07v1.6h-5.26v2.26h2.72q1.56 0 2.47.93.9.93.91 2.3 0 1.37-.9 2.3a3.3 3.3 0 0 1-2.48.94h-4.53zm4.3 5.45h-2.49v3.28h2.48q.78 0 1.26-.45.5-.45.5-1.19 0-.73-.5-1.19t-1.26-.45M124.65 44.44a5.4 5.4 0 0 1-2.73-.7 5 5 0 0 1-1.88-1.9 6 6 0 0 1-.67-2.75q0-1.53.67-2.74a5 5 0 0 1 1.88-1.92q1.2-.68 2.73-.68a5.5 5.5 0 0 1 3.8 1.52q.7.7 1.1 1.69.38.99.39 2.13 0 1.14-.4 2.13a4.96 4.96 0 0 1-2.77 2.81q-.98.4-2.12.4m0-1.61q1.53 0 2.48-1.06t.95-2.68-.95-2.68a3.2 3.2 0 0 0-2.48-1.05q-1.54 0-2.48 1.05t-.94 2.68q0 1.62.94 2.68t2.48 1.06M135.56 44.25h-1.81v-8.73h-3.13v-1.6h8.06v1.6h-3.12zM140.22 33.92h1.81v3.86h2.72q1.56 0 2.47.93.9.93.91 2.3 0 1.37-.9 2.3a3.3 3.3 0 0 1-2.48.94h-4.53zm4.3 5.45h-2.49v3.28h2.48q.78 0 1.26-.45.5-.45.5-1.19 0-.73-.5-1.19-.49-.45-1.26-.45m6.39 4.88h-1.82V33.92h1.82z"/><defs><linearGradient id="a" x1="40.33" x2="40.33" y1="-8.49" y2="61.18" gradientUnits="userSpaceOnUse"><stop stop-color="#efea3f"/><stop offset="1" stop-color="#c8bc41" stop-opacity="0"/></linearGradient><linearGradient id="b" x1="40.33" x2="40.33" y1="-8.49" y2="61.18" gradientUnits="userSpaceOnUse"><stop stop-color="#efea3f"/><stop offset="1" stop-color="#c8bc41" stop-opacity="0"/></linearGradient></defs></svg>