<svg xmlns="http://www.w3.org/2000/svg" width="21" height="21" fill="none"><g fill="#c8c137" clip-path="url(#a)"><path d="M20.0522 2.50236c0-.50049-.3342-.83415-.8355-.83415H.83551C.334204 1.66821 0 2.00187 0 2.50236v1.6683c0 .50048.334204.83414.83551.83414H19.2167c.5013 0 .8355-.33366.8355-.83414zM20.0522 9.17546c0-.50049-.3342-.83415-.8355-.83415H.83551C.334204 8.34131 0 8.67497 0 9.17546v1.66834c0 .5004.334204.8341.83551.8341H19.2167c.5013 0 .8355-.3337.8355-.8341zM20.0522 15.8488c0-.5005-.2228-.8342-.557-.8342H7.24109c-.33421 0-.55701.3337-.55701.8342v1.6683c0 .5005.2228.8341.55701.8341H19.4952c.3342 0 .557-.3336.557-.8341z"/></g><defs><clipPath id="a"><path fill="#fff" d="M0 0h20.0522v20.0195H0z"/></clipPath></defs></svg>