<svg xmlns="http://www.w3.org/2000/svg" width="19" height="19" fill="none"><g clip-path="url(#a)"><path fill="#c8c239" fill-opacity=".7" d="M9.92477 9.00856 7.84756 6.75095c-.17686-.17837-.17686-.46755 0-.64683.17686-.17747.46471-.17747.64067 0l2.53287 2.58012c.1769.17928.1769.46846 0 .64593L8.48823 11.9103c-.17596.1793-.46381.1784-.64067 0-.17686-.1775-.17686-.4667 0-.6459zM9.02242.36011c4.78428 0 8.66258 3.87198 8.66258 8.64845 0 4.77734-3.8783 8.64844-8.66258 8.64844-4.78426 0-8.66256-3.8711-8.66256-8.64844 0-4.77647 3.8783-8.64845 8.66256-8.64845m0 16.17439c4.16258 0 7.53828-3.3693 7.53828-7.52594 0-4.15666-3.3757-7.52596-7.53828-7.52596-4.16434 0-7.53823 3.3693-7.53823 7.52596-.0009 4.15664 3.37389 7.52594 7.53823 7.52594"/></g><defs><clipPath id="a"><path fill="#fff" d="M0 0h18.047v18.0176H0z"/></clipPath></defs></svg>