<svg xmlns="http://www.w3.org/2000/svg" width="12" height="12" fill="none"><path fill="#00b300" d="M6 0C2.6914 0 0 2.6914 0 6s2.6914 6 6 6 6-2.6914 6-6-2.6914-6-6-6m0 10.7284c-2.605 0-4.716-2.1235-4.716-4.716 0-2.5927 2.1234-4.7161 4.716-4.7161s4.7161 2.1235 4.7161 4.716S8.6049 10.7284 6 10.7284"/><path fill="#00b300" d="M9.1235 5.8148H6.432V2.5803a.4953.4953 0 0 0-.4938-.4939.4953.4953 0 0 0-.4939.4939v3.7283c0 .2717.2223.4939.4939.4939h3.1852a.4953.4953 0 0 0 .4938-.4939.4953.4953 0 0 0-.4938-.4938"/></svg>