<svg xmlns="http://www.w3.org/2000/svg" width="22" height="22" fill="none"><path fill="#2e75b3" d="m21.952 4.452-6.925 6.43 6.93 6.65a.8.8 0 0 0 .043-.246V4.714a.8.8 0 0 0-.048-.262m-.738 9.298a.393.393 0 1 1-.785 0v-5.5a.393.393 0 0 1 .785 0zM10.427 16.306a.545.545 0 0 0-.675-.358l-.516.152.153.506a.393.393 0 1 1-.752.228l-.155-.51-2.07.608a.85.85 0 0 1-.812-.177 9.75 9.75 0 0 1-2.729-4.486 9.66 9.66 0 0 1-.206-5.232.86.86 0 0 1 .584-.59l2.065-.608-.152-.506a.393.393 0 0 1 .752-.227l.154.51.521-.153a.54.54 0 0 0 .322-.26.52.52 0 0 0 .04-.398L5.615.38A.543.543 0 0 0 4.94.023l-.517.152.955 3.16a.393.393 0 0 1-.751.228L3.67.396l-.73.216a.55.55 0 0 0-.236.144L.45 3.089a.54.54 0 0 0-.137.259C.093 4.36-.51 8.04.937 12.834s3.997 7.546 4.744 8.275a.55.55 0 0 0 .26.143l3.18.734a.55.55 0 0 0 .28-.009l.725-.213-.955-3.16a.393.393 0 1 1 .752-.228l.957 3.165.52-.153a.53.53 0 0 0 .323-.26.52.52 0 0 0 .04-.398z"/><path fill="#2e75b3" d="m6.811 6.216-.417.123 5.657 5.237c.302.28.768.28 1.069 0l8.227-7.634a1 1 0 0 0-.133-.014H7.508l.196.649c.102.333.066.693-.1.999a1.32 1.32 0 0 1-.793.64M9.43 4.714h6.285a.393.393 0 1 1 0 .786H9.43a.393.393 0 0 1 0-.786M3.471 7.2a.07.07 0 0 0-.048.043 8.86 8.86 0 0 0 .2 4.8 9.6 9.6 0 0 0 1.773 3.37l4.734-4.546-4.613-4.27z"/><path fill="#2e75b3" d="M13.656 12.152a1.577 1.577 0 0 1-2.137 0l-.811-.75-4.779 4.587q.107.104.19.177c.02.015.047.02.07.013l3.34-.985a1.33 1.33 0 0 1 1.65.884l.602 1.993h9.433a1 1 0 0 0 .153-.015l-6.917-6.64z"/></svg>