<svg xmlns="http://www.w3.org/2000/svg" width="138" height="64" fill="none"><g opacity=".8"><path fill="#cac63b" d="M123.945 0h3.913c5.522 0 10 4.4772 10 10v43.2375c0 5.5229-4.478 10-10 10h-3.913z"/><rect width="136.858" height="62.2375" x=".5" y=".5" stroke="#cac63b" rx="9.5"/><path fill="#000" d="m131.836 31.7661-1.991-2.1648a.4395.4395 0 0 1 0-.6191.4317.4317 0 0 1 .614 0l2.428 2.4737c.17.1716.17.4488 0 .6197l-2.428 2.4738c-.169.1721-.444.1709-.614 0-.17-.1703-.17-.4476 0-.6191z"/><g clip-path="url(#a)"><path fill="#cac63b" d="M79.047 13.9685q-.0002-.0055-.0006-.0111a.4.4 0 0 0-.0029-.0433l-.0024-.0157a.5.5 0 0 0-.0113-.0538.5.5 0 0 0-.0131-.0408q-.0012-.0038-.0025-.0076l-1.3318-3.4093a.884.884 0 0 0-.8282-.5656h-2.425a.4785.4785 0 0 0-.4785.4786c0 .2643.2142.4786.4785.4786h2.3786l1.0599 2.7132H67.8474l-.6279-2.7132h3.7007a.4786.4786 0 1 0 0-.9572H51.5586a.884.884 0 0 0-.8282.5657l-1.3318 3.4092c-.001.0025-.0015.0052-.0025.0076a.46.46 0 0 0-.0244.0946l-.0024.0157a.5.5 0 0 0-.0029.0433c-.0001.0037-.0006.0073-.0006.0111l-.0001.0017v7.0312a.4786.4786 0 1 0 .9572 0v-6.5525h10.1445v7.2745c0 .2845.1676.5437.427.6604a.7248.7248 0 0 0 .7773-.1183l2.5347-2.2456 2.5347 2.2455a.725.725 0 0 0 .7774.1184.725.725 0 0 0 .4269-.6604v-7.2745h10.1445v21.466a.6236.6236 0 0 1-.6228.6229h-8.7752c0-.0054-.0007-.0109-.0007-.0163a1.8 1.8 0 0 0-.0058-.1284c.824.2185 1.7043-.205 2.0345-1.0148a1.71 1.71 0 0 0-.0621-1.4347l-.0107-.021a1.7 1.7 0 0 0-.0611-.1066l-.0128-.02a1.7 1.7 0 0 0-.0716-.104l-.0014-.0018a1.7 1.7 0 0 0-.0788-.0964l-.0149-.0171a1.7 1.7 0 0 0-.0842-.0873l-.0172-.0162a1.7 1.7 0 0 0-.0941-.0827l-.0033-.0025a1.7 1.7 0 0 0-.099-.0736l-.0183-.0127a1.7 1.7 0 0 0-.1042-.0648q-.0042-.0027-.0086-.0054a1.715 1.715 0 0 0 .4659-.6515 1.71 1.71 0 0 0-.0073-1.3179 1.71 1.71 0 0 0-.7818-.8545 1.8 1.8 0 0 0-.1552-.0723l-7.4486-3.0371 3.4672-1.0732c.8249-.2554 1.2895-1.1352 1.0356-1.9611-.0947-.3083-.2825-.5683-.5251-.7583-.361-.2829-.8435-.4106-1.322-.3101l-.0069.0015c-.0265.0059-2.6844.6036-5.4604 1.1449a170 170 0 0 1-.641.1235l-.0788.015a126 126 0 0 1-.6524.122c-3.4862.6423-4.4656.6538-4.7374.617l-.003-.0005-.012-.0017q-.004-.0008-.0078-.0013l-.0056-.001a.4.4 0 0 1-.0404-.0093l-.0784-.032.0977-.2396a.946.946 0 0 0-.004-.7292.9461.9461 0 0 0-.5185-.5128l-2.5705-1.0481a.946.946 0 0 0-.7291.004.946.946 0 0 0-.5128.5184l-3.1432 7.7088c-.1984.4865.036 1.0435.5225 1.2419l2.5706 1.0482a.95.95 0 0 0 .3584.0705c.3759 0 .7329-.224.8834-.593l.0236-.0579.5927.2416.0011.0004a5.26 5.26 0 0 1 2.1119 1.5758 6.22 6.22 0 0 0 2.4971 1.8633l.6668.2718h-4.8841a.6236.6236 0 0 1-.6229-.6228v-1.211a.4786.4786 0 1 0-.9571 0v1.211c0 .8712.7087 1.58 1.58 1.58h7.2316l6.1652 2.5138c.2122.0865.4317.1276.6479.1275.6795 0 1.3248-.4049 1.5968-1.0718a1.71 1.71 0 0 0 .1173-.8344 1.78 1.78 0 0 0 .9545-.1263c.3063-.1323.5602-.343.7404-.6089h9.0676c.8713 0 1.5801-.7087 1.5801-1.58V13.9703zm-16.8713-3.19h4.0613l.6279 2.7132h-5.317zm-1.6102 2.7132H50.5451l1.0599-2.7132h9.5883zm6.4229 7.714h-.0001l-2.3017-2.0391a.722.722 0 0 0-.4801-.1819.723.723 0 0 0-.4802.1819l-2.3017 2.0391v-6.7568h5.5638zM49.0521 32.2772l-2.5623-1.0448 3.1398-7.7005 2.5624 1.0449zm19.12 2.8881-.5492-.224-.0008-.0003-.0006-.0003h-.0002l-5.7204-2.3324a.4787.4787 0 0 0-.3613.8864l5.7205 2.3324a.8.8 0 0 1 .0693.0325c.0063.0033.0121.0073.0183.0108.0157.0089.0314.0178.0463.0277.0071.0048.0137.0103.0206.0153.0132.0094.0266.0187.039.0289.0076.0061.0144.013.0216.0194.0112.0099.0226.0195.033.03.0073.0072.0138.0151.0207.0225.0096.0104.0195.0205.0286.0314.0068.0083.0129.0171.0194.0257.0082.0108.0167.0213.0242.0324.0064.0093.0118.0191.0177.0286.0068.011.014.0218.0202.0331.0056.0103.0104.0209.0155.0313.0055.0112.0115.0222.0165.0337.0047.011.0086.0224.0129.0336.0043.0113.009.0224.0128.0339s.0067.0235.0099.0352c.0032.0116.0068.023.0095.0347s.0044.0239.0065.0358c.0022.0119.0047.0237.0062.0357.0016.0121.0022.0243.0032.0364s.0024.0243.0028.0364c.0004.012-.0002.0241-.0003.0362-.0002.0124 0 .0248-.0008.0373-.0007.0119-.0024.0237-.0038.0356-.0013.0128-.0024.0255-.0045.0382-.0019.0117-.0048.0233-.0072.0349-.0028.0129-.0051.0258-.0085.0386-.0031.0114-.0071.0226-.0107.0339-.0041.0128-.0078.0256-.0126.0383q-.006.013-.0118.0263-.001.003-.0021.0061c-.0747.1726-.2127.3097-.3929.3876-.1984.0855-.4255.0885-.6231.0079l-1.0136-.4133c-.0047-.0019-.0095-.0032-.0142-.0049q-.007-.0035-.0141-.0067l-4.6527-1.8971a.4785.4785 0 0 0-.6238.2625.4785.4785 0 0 0 .2624.6239l4.6527 1.8971c.005.0021.01.0035.015.0053.0046.002.0087.0044.0134.0063.3905.1592.5787.6065.4195.9969-.1593.3906-.6063.5789-.997.4195l-6.2512-2.5489-.0008-.0004-2.9273-1.1937a5.25 5.25 0 0 1-2.1119-1.5757 6.2205 6.2205 0 0 0-2.4972-1.8634h-.0002l-.5935-.242 1.182-2.8989 1.1171-2.7395.0824.0336c.0775.0316.1882.0765.4859.0878.3719.0168.9873-.022 2.0896-.1777.7499-.1059 1.6697-.2591 2.7434-.4567l.0794-.0146.1519-.0281.1195-.0223.1378-.0259.1485-.0281.1201-.0228.2805-.0536.2894-.056c2.7665-.5381 5.4366-1.137 5.5566-1.164.012-.0025.024-.0039.0359-.0057.3074-.0455.6086.1323.6968.4192a.6127.6127 0 0 1-.4038.7655l-4.7447 1.4685a.4785.4785 0 0 0-.0391.9004l8.6869 3.5422a.76.76 0 0 1 .4162.4116.76.76 0 0 1 .0032.5853.76.76 0 0 1-.4116.4162.77.77 0 0 1-.2924.0602l-.0043-.0002a.7.7 0 0 1-.0698-.0031c-.0069-.0006-.0137-.0021-.0205-.0029a.7.7 0 0 1-.0531-.0076c-.0112-.0021-.0222-.0054-.0332-.008-.0132-.0032-.0265-.0058-.0396-.0097-.0136-.004-.0269-.0093-.0402-.0141-.0106-.0038-.0214-.0069-.0319-.0112l-5.721-2.3327a.4785.4785 0 0 0-.6238.2625.4785.4785 0 0 0 .2625.6239l6.9358 2.8281a.7583.7583 0 0 1 .4162.4116.758.758 0 0 1 .0032.5853.8.8 0 0 1-.0331.0709.76.76 0 0 1-.1009.1446.76.76 0 0 1-.0764.0755c-.0043.0037-.0083.0079-.0126.0114a.768.768 0 0 1-.7739.117z"/></g><path fill="#cac63b" d="M18.1733 53.78v-1.7187q.1914-.0195.3164-.0664.125-.047.25-.1602.125-.1172.2071-.3164.086-.1992.1562-.5234.0743-.3243.1289-.793l.3125-2.7422h3.6211v4.5117h.4961V53.78h-.9336v-.9843h-3.6172v.9843zm1.9844-3.5117q-.1406 1.1875-.7031 1.7031h2.7773v-3.6875h-1.8476zm5.9414 2.625q-.4492 0-.8242-.1601-.375-.1641-.6289-.4375-.25-.2774-.3906-.6485t-.1407-.789q0-.4141.1407-.7813.1406-.371.3906-.6445.254-.2774.6289-.4375t.8242-.1602q.6016 0 1.0586.2774.461.2773.6953.7343.2383.4532.2383 1.0118 0 .5625-.2383 1.0234-.2343.457-.6953.7344-.457.2773-1.0586.2773m0-.7461q.5196 0 .8164-.3711.3008-.375.3008-.9179 0-.5352-.3008-.9063-.2968-.3711-.8164-.3711-.5117 0-.8125.3711t-.3008.9063q0 .539.3008.914t.8125.375m4.6016.7461q-.879 0-1.4414-.5742-.5586-.5742-.5586-1.4609 0-.879.5586-1.4493.5625-.5742 1.4414-.5742.9687 0 1.4805.6875l-.5547.5117q-.3203-.453-.8868-.4531-.5234 0-.8476.3555-.3203.3555-.3203.9219 0 .5703.3203.9296.3242.3594.8476.3594.5547 0 .8868-.457l.5547.5117q-.5157.6914-1.4805.6914m3.7617-.0976h-.8437v-3.129h-1.1016v-.7343h3.0547v.7343h-1.1094zm4.1641 0h-2.3672v-3.8633h2.3125q.5351 0 .8398.2812t.3047.711q0 .332-.1836.5625a.93.93 0 0 1-.4648.3164q.3125.0741.5195.3398t.207.6055q0 .4648-.3086.7578-.3085.289-.8593.2891m-.1758-.7344q.2226 0 .3515-.1133.129-.1172.129-.3203 0-.1836-.129-.3125-.1289-.129-.3515-.1289h-1.3516v.875zm-.0235-1.6094q.1993 0 .3165-.1094.1171-.1093.1171-.2734 0-.1797-.1171-.2891-.1133-.1133-.3165-.1133h-1.3281v.7852zm6.0274 2.3438h-1.0547l-1.1836-1.5938-.5391.5547v1.0391h-.8398v-3.8633h.8398v1.8633l1.7071-1.8633h1.039l-1.6093 1.75zm3.793 0h-.8399v-.4141q-.2187.2461-.543.3789-.3203.1328-.7031.1328a1.43 1.43 0 0 1-.4765-.082 1.55 1.55 0 0 1-.4336-.2344q-.1953-.1563-.3164-.4062-.1173-.25-.1172-.5586 0-.3204.1172-.5664.121-.25.3164-.3946a1.47 1.47 0 0 1 .4297-.2226 1.58 1.58 0 0 1 .4804-.0743q.8204 0 1.2461.4961v-.5742q0-.332-.25-.5234-.246-.1953-.6523-.1953-.6484 0-1.1446.4843l-.3437-.582q.6602-.625 1.625-.625.3359 0 .6133.0781.2812.0742.5078.2344.2265.1563.3555.4375.1289.2774.1289.6524zm-1.7579-.4805q.2852 0 .5313-.1016.2462-.1054.3867-.2969v-.5859q-.1405-.1914-.3867-.293-.246-.1054-.5313-.1054-.3593 0-.5937.1914-.2305.1874-.2305.5039 0 .3086.2305.5.2344.1875.5937.1875m8.3594.4805h-.8398v-3.129h-1.7774v3.129h-.8398v-3.8633h3.457zm2.836.0976q-.4493 0-.8243-.1601-.375-.1641-.6289-.4375-.2499-.2774-.3906-.6485t-.1406-.789q0-.4141.1406-.7813.1407-.371.3906-.6445.254-.2774.6289-.4375t.8243-.1602q.6015 0 1.0586.2774.4608.2773.6953.7343.2382.4532.2382 1.0118 0 .5625-.2382 1.0234-.2345.457-.6953.7344-.457.2773-1.0586.2773m0-.7461q.5194 0 .8164-.3711.3007-.375.3007-.9179 0-.5352-.3007-.9063-.297-.3711-.8164-.3711-.5118 0-.8125.3711-.3009.3711-.3008.9063 0 .539.3008.914t.8125.375m7.2617.6485h-2.3672v-3.8633h2.3125q.5352 0 .8398.2812.3047.2813.3047.711 0 .332-.1836.5625a.93.93 0 0 1-.4648.3164q.3125.0741.5195.3398t.207.6055q0 .4648-.3085.7578-.3087.289-.8594.2891m-.1758-.7344q.2226 0 .3516-.1133.1289-.1172.1289-.3203 0-.1836-.1289-.3125-.129-.129-.3516-.1289h-1.3516v.875zm-.0234-1.6094q.1992 0 .3164-.1094.1172-.1093.1172-.2734 0-.1797-.1172-.2891-.1133-.1133-.3164-.1133h-1.3282v.7852zm4.1718 2.4414q-.8789 0-1.4414-.5742-.5586-.5742-.5586-1.4609 0-.879.5586-1.4493.5625-.5742 1.4414-.5742.9689 0 1.4805.6875l-.5547.5117q-.3203-.453-.8867-.4531-.5234 0-.8477.3555-.3203.3555-.3203.9219 0 .5703.3203.9296.3243.3594.8477.3594.5547 0 .8867-.457l.5547.5117q-.5155.6914-1.4805.6914m4 0q-.8789 0-1.4531-.5625-.5703-.5664-.5703-1.4726 0-.5547.2461-1.0157.25-.4649.7031-.7343.4531-.2735 1.0117-.2735.8595 0 1.3789.5938.5235.5898.5235 1.5117v.1992h-2.9844q.0508.457.375.7617.3282.3008.8555.3008.293 0 .5937-.1094.3047-.1133.5039-.3125l.3828.5508q-.2851.2734-.6914.418-.4062.1445-.875.1445m1.0235-2.3437a1.1 1.1 0 0 0-.0742-.3516 1.14 1.14 0 0 0-.1875-.332q-.1251-.1563-.3399-.25-.211-.0938-.4844-.0938-.2578 0-.4687.0938-.207.0898-.336.2461a1.33 1.33 0 0 0-.1992.3281 1.21 1.21 0 0 0-.0859.3594zm2.4531 2.2461h-.8086v-3.8633h.8398V51.53l1.7774-2.5976h.8398v3.8633h-.8398v-2.6719zm2.3203-4.9766a1.72 1.72 0 0 1-.6094.5156q-.3633.1875-.789.1875-.422 0-.793-.1875a1.79 1.79 0 0 1-.6172-.5156l.3828-.3203q.379.5273 1.0274.5273.3163 0 .5781-.1367.2617-.1406.4375-.3906zm4.4336 4.9766h-.9375v-5.336h2.3438q.8085 0 1.2773.4844.4687.4804.4687 1.1875 0 .707-.4726 1.1914-.4688.4805-1.2734.4805h-1.4063zm1.2813-2.8165q.3984 0 .6523-.2343.2578-.2344.2578-.6133t-.2578-.6133q-.254-.2343-.6523-.2344h-1.2813v1.6953zm4.246 2.9141q-.4492 0-.8242-.1601-.375-.1641-.6289-.4375-.25-.2774-.3906-.6485t-.1406-.789q0-.4141.1406-.7813.1406-.371.3906-.6445.254-.2774.6289-.4375t.8242-.1602q.6017 0 1.0586.2774.461.2773.6954.7343.2382.4532.2382 1.0118 0 .5625-.2382 1.0234-.2344.457-.6954.7344-.457.2773-1.0586.2773m0-.7461q.5196 0 .8165-.3711.3007-.375.3007-.9179 0-.5352-.3007-.9063-.297-.3711-.8165-.3711-.5116 0-.8125.3711-.3007.3711-.3007.9063 0 .539.3007.914.3009.375.8125.375m4.6016.7461q-.8789 0-1.4414-.5742-.5586-.5742-.5586-1.4609 0-.879.5586-1.4493.5625-.5742 1.4414-.5742.9687 0 1.4805.6875l-.5547.5117q-.3203-.453-.8867-.4531-.5234 0-.8477.3555-.3203.3555-.3203.9219 0 .5703.3203.9296.3243.3594.8477.3594.5546 0 .8867-.457l.5547.5117q-.5157.6914-1.4805.6914m3.9766 0q-.879 0-1.4414-.5742-.5586-.5742-.5586-1.4609 0-.879.5586-1.4493.5625-.5742 1.4414-.5742.9687 0 1.4804.6875l-.5546.5117q-.3204-.453-.8868-.4531-.5234 0-.8476.3555-.3203.3555-.3203.9219 0 .5703.3203.9296.3242.3594.8476.3594.5547 0 .8868-.457l.5546.5117q-.5156.6914-1.4804.6914m3.0236-.0976h-.8088v-3.8633h.8398V51.53l1.777-2.5976h.84v3.8633h-.84v-2.6719zm4.547 0h-.809v-3.8633h.84V51.53l1.777-2.5976h.84v3.8633h-.84v-2.6719z"/></g><defs><clipPath id="a"><path fill="#fff" d="M45.5312 8.2207h33.5159v33.5159H45.5312z"/></clipPath></defs></svg>