<svg xmlns="http://www.w3.org/2000/svg" width="13" height="10" fill="none"><path fill="#2e75b3" d="M6.5 2.019 1.864 5.713l-.004.024-.005.023V9.5q0 .204.154.352a.5.5 0 0 0 .363.148h3.096V7.007h2.064V10h3.097q.21 0 .362-.148a.47.47 0 0 0 .154-.351V5.76a.1.1 0 0 0-.008-.047z"/><path fill="#2e75b3" d="m12.91 4.871-1.765-1.418V.273a.24.24 0 0 0-.073-.18.26.26 0 0 0-.185-.07H9.338a.26.26 0 0 0-.185.07.24.24 0 0 0-.073.18v1.52L7.113.203A.96.96 0 0 0 6.5 0a.96.96 0 0 0-.613.203L.09 4.87A.22.22 0 0 0 0 5.04a.25.25 0 0 0 .057.183l.5.577q.065.07.17.086A.3.3 0 0 0 .92 5.83L6.5 1.333l5.58 4.497q.065.054.17.055h.024a.28.28 0 0 0 .169-.086l.5-.577a.25.25 0 0 0 .056-.183.23.23 0 0 0-.089-.168"/></svg>