<svg xmlns="http://www.w3.org/2000/svg" width="19" height="22" fill="none"><path fill="#2e75b3" d="M5.674 13.013c.517 0 1.087.05 1.607.146v-1.558h3.79v2.78c.445.165.77.341 1.077.563.579.42.897.973.916 1.58a5.9 5.9 0 0 0 2-.873c.21-.145.465-.272.613-.381v-4.328L9.158 3.658l-6.632 7.328v2.619c.446-.113.852-.235 1.323-.363a7 7 0 0 1 1.825-.229"/><path fill="#2e75b3" d="m9.188 1.88 7.37 8.235h1.68L9.173 0l-3.75 4.129V2.462H2.676v4.705L.03 10.115h1.705zM17.408 15.97c-.408 0-.957.18-1.656.66-1.276.878-2.84 1.265-4.267 1.265-1.16 0-2.232-.255-2.99-.71-.374-.224-.373-.3-.155-.3.436 0 1.746.303 2.633.303.437 0 .772-.073.85-.292.361-1.012-1.04-1.338-2.506-1.932-1.074-.434-2.383-.762-3.63-.762-.52 0-1.035.057-1.511.187-2.166.59-3.73 1.035-4.176 1.18v5.682c.892-.328 1.924-.642 2.512-.642 1.079 0 5.443 1.391 7.914 1.391.346 0 .656-.027.914-.09 2.097-.506 5.738-3.471 6.726-4.484.475-.486.287-1.456-.658-1.456"/></svg>