<svg xmlns="http://www.w3.org/2000/svg" width="62" height="62" fill="none"><circle cx="31" cy="31" r="30.5" fill="#f7f7f7" transform="rotate(180 31 31)"/><circle cx="31" cy="31" r="30.5" stroke="#ccc" transform="rotate(180 31 31)"/><circle cx="31" cy="31" r="30.5" stroke="url(#a)" transform="rotate(180 31 31)"/><path fill="#00b300" d="M30.5652 13.4457c9.4387 0 17.1196 7.6808 17.1196 17.1195s-7.6809 17.1196-17.1196 17.1196-17.1195-7.6809-17.1195-17.1196 7.6808-17.1195 17.1195-17.1195m0-2.4457C19.7604 11 11 19.7604 11 30.5652s8.7604 19.5652 19.5652 19.5652S50.1304 41.37 50.1304 30.5652 41.37 11 30.5652 11m10.9075 26.1069-.1098-.3344c-.258-.769-1.1082-1.5715-1.8916-1.7865l-2.8922-.7905c-.7834-.2126-1.9011.074-2.4766.6496l-1.0462 1.0461c-3.8022-1.0294-6.7852-4.0124-7.8122-7.8146l1.0461-1.0461c.5732-.5732.8598-1.691.6473-2.4767l-.7883-2.8923c-.2125-.7834-1.0198-1.6336-1.7888-1.8915l-.3297-.1099c-.7714-.258-1.8724.0023-2.4456.578l-1.5668 1.5667c-.2794.2771-.4585 1.0724-.4585 1.0748-.0526 4.9725 1.8964 9.7611 5.412 13.2791 3.5061 3.5061 8.278 5.4527 13.2337 5.4096.0263 0 .8455-.1743 1.1249-.4538l1.5668-1.5668c.5732-.5708.831-1.6718.5755-2.4408"/><defs><linearGradient id="a" x1="31" x2="31" y1="31.9677" y2="61" gradientUnits="userSpaceOnUse"><stop stop-color="#f7f7f7"/><stop offset="1" stop-color="#fff" stop-opacity="0"/></linearGradient></defs></svg>