<svg xmlns="http://www.w3.org/2000/svg" width="15" height="15" fill="none"><path fill="#000" fill-opacity=".4" d="M11.404 9.923c-.49-.484-1.102-.484-1.589 0a93 93 0 0 0-1.108 1.111c-.1.103-.184.125-.306.056-.24-.13-.496-.237-.727-.38-1.077-.678-1.979-1.549-2.778-2.529-.397-.487-.75-1.008-.996-1.595-.05-.119-.04-.197.056-.293.372-.36.734-.728 1.1-1.096.508-.512.508-1.111-.004-1.626-.29-.294-.58-.58-.87-.874-.3-.3-.597-.603-.9-.9-.49-.477-1.102-.477-1.589.004C1.32 2.169.96 2.547.58 2.909c-.353.334-.53.743-.568 1.22-.06.778.131 1.511.4 2.226.549 1.48 1.385 2.794 2.4 3.999a14.85 14.85 0 0 0 4.92 3.848c.86.418 1.753.74 2.724.793.668.038 1.249-.131 1.714-.652.318-.356.677-.68 1.014-1.021.5-.506.503-1.117.007-1.617q-.89-.894-1.786-1.782"/><path fill="#fc9b36" d="M11.404 9.923c-.49-.484-1.102-.484-1.589 0a93 93 0 0 0-1.108 1.111c-.1.103-.184.125-.306.056-.24-.13-.496-.237-.727-.38-1.077-.678-1.979-1.549-2.778-2.529-.397-.487-.75-1.008-.996-1.595-.05-.119-.04-.197.056-.293.372-.36.734-.728 1.1-1.096.508-.512.508-1.111-.004-1.626-.29-.294-.58-.58-.87-.874-.3-.3-.597-.603-.9-.9-.49-.477-1.102-.477-1.589.004C1.32 2.169.96 2.547.58 2.909c-.353.334-.53.743-.568 1.22-.06.778.131 1.511.4 2.226.549 1.48 1.385 2.794 2.4 3.999a14.85 14.85 0 0 0 4.92 3.848c.86.418 1.753.74 2.724.793.668.038 1.249-.131 1.714-.652.318-.356.677-.68 1.014-1.021.5-.506.503-1.117.007-1.617q-.89-.894-1.786-1.782"/><path fill="#000" fill-opacity=".4" d="m10.808 7.435 1.152-.197a5.15 5.15 0 0 0-1.44-2.778 5.12 5.12 0 0 0-2.933-1.463l-.163 1.158a3.97 3.97 0 0 1 2.273 1.133c.587.586.97 1.33 1.11 2.147"/><path fill="#fc9b36" d="m10.808 7.435 1.152-.197a5.15 5.15 0 0 0-1.44-2.778 5.12 5.12 0 0 0-2.933-1.463l-.163 1.158a3.97 3.97 0 0 1 2.273 1.133c.587.586.97 1.33 1.11 2.147"/><path fill="#000" fill-opacity=".4" d="M12.609 2.428A8.5 8.5 0 0 0 7.739 0l-.162 1.158a7.36 7.36 0 0 1 4.208 2.098 7.36 7.36 0 0 1 2.063 3.98L15 7.038a8.56 8.56 0 0 0-2.391-4.61"/><path fill="#fc9b36" d="M12.609 2.428A8.5 8.5 0 0 0 7.739 0l-.162 1.158a7.36 7.36 0 0 1 4.208 2.098 7.36 7.36 0 0 1 2.063 3.98L15 7.038a8.56 8.56 0 0 0-2.391-4.61"/></svg>