<svg xmlns="http://www.w3.org/2000/svg" width="12" height="12" fill="none"><path fill="#00b300" d="M9.1233 7.9382c-.392-.387-.8815-.387-1.271 0-.2972.2947-.5944.5893-.8865.889-.08.0824-.1474.0999-.2448.045-.1923-.105-.397-.1898-.5818-.3047-.8615-.5419-1.5832-1.2386-2.2225-2.0226-.3171-.3896-.5993-.8066-.7966-1.276-.04-.095-.0324-.1574.045-.2348.2972-.2871.5868-.5818.879-.8764.407-.4096.407-.889-.0025-1.301-.2322-.2347-.4645-.4645-.6967-.6992-.2397-.2397-.477-.482-.7192-.7192-.392-.382-.8815-.382-1.271.0025-.2997.2947-.5869.5968-.8915.8865-.2822.2672-.4245.5943-.4545.9764-.0474.6217.1049 1.2085.3196 1.7804.4395 1.1836 1.1088 2.2349 1.9203 3.1987 1.0963 1.3035 2.4048 2.3348 3.9355 3.0789.6893.3346 1.4034.5918 2.18.6343.5344.03.999-.1049 1.371-.5219.2547-.2847.5419-.5444.8116-.8165.3995-.4046.402-.894.005-1.2935-.4745-.477-.9515-.9514-1.4284-1.4259M8.6463 5.948l.9215-.1573c-.1449-.8465-.5444-1.613-1.1512-2.2224-.6418-.6417-1.4534-1.0462-2.3473-1.1711l-.1299.9264c.6917.0974 1.321.4095 1.818.9065a3.178 3.178 0 0 1 .889 1.718M10.0872 1.9427C9.0234.879 7.6774.2073 6.1916 0l-.1298.9264c1.2835.1798 2.4472.7616 3.3661 1.678.8715.8715 1.4434 1.9727 1.6507 3.1838L12 5.631c-.2422-1.4033-.904-2.6768-1.9128-3.6882"/></svg>