<svg xmlns="http://www.w3.org/2000/svg" width="25" height="20" fill="none" viewBox="0 0 25 20"><path fill="#e6bc5e" d="M24.384.548C24.08.194 23.628 0 23.108 0c-.283 0-.583.057-.89.17L1.252 7.807C.141 8.213-.009 8.82 0 9.148c.01.326.196.925 1.33 1.27l.021.006L5.7 11.61 8.05 18.03c.32.875 1.04 1.419 1.879 1.419.528 0 1.048-.212 1.503-.611l2.69-2.364 3.901 2.998.001.001.038.029.01.007c.433.321.907.49 1.37.491.903 0 1.622-.638 1.832-1.626L24.71 2.185c.137-.65.022-1.231-.326-1.637M7.154 11.386l8.39-4.091-5.224 5.298a.7.7 0 0 0-.176.309l-1.007 3.894zm3.296 6.433q-.053.045-.105.082l.935-3.612 1.7 1.306zm12.837-15.91L19.852 18.1c-.033.155-.138.516-.41.516-.134 0-.302-.07-.475-.197l-4.42-3.397-.003-.002-2.63-2.021 7.554-7.662a.67.67 0 0 0 .052-.89.75.75 0 0 0-.91-.202L6.185 10.303 1.777 9.099l20.958-7.636c.177-.064.3-.078.373-.078.044 0 .123.005.152.04.04.045.088.198.027.485"/><path fill="#039be5" fill-opacity=".8" d="M24.384.548C24.08.194 23.628 0 23.108 0c-.283 0-.583.057-.89.17L1.252 7.807C.141 8.213-.009 8.82 0 9.148c.01.326.196.925 1.33 1.27l.021.006L5.7 11.61 8.05 18.03c.32.875 1.04 1.419 1.879 1.419.528 0 1.048-.212 1.503-.611l2.69-2.364 3.901 2.998.001.001.038.029.01.007c.433.321.907.49 1.37.491.903 0 1.622-.638 1.832-1.626L24.71 2.185c.137-.65.022-1.231-.326-1.637M7.154 11.386l8.39-4.091-5.224 5.298a.7.7 0 0 0-.176.309l-1.007 3.894zm3.296 6.433q-.053.045-.105.082l.935-3.612 1.7 1.306zm12.837-15.91L19.852 18.1c-.033.155-.138.516-.41.516-.134 0-.302-.07-.475-.197l-4.42-3.397-.003-.002-2.63-2.021 7.554-7.662a.67.67 0 0 0 .052-.89.75.75 0 0 0-.91-.202L6.185 10.303 1.777 9.099l20.958-7.636c.177-.064.3-.078.373-.078.044 0 .123.005.152.04.04.045.088.198.027.485"/></svg>