<svg xmlns="http://www.w3.org/2000/svg" width="64" height="64" fill="none"><g opacity=".8"><rect width="62.2375" height="62.2375" x=".5" y=".5" stroke="#cac63b" rx="9.5"/><path fill="#cac63b" fill-rule="evenodd" d="M31.6574 31.6843a7.247 7.247 0 0 1-4.6241-1.6126 7.225 7.225 0 0 1-2.537-4.183 7.217 7.217 0 0 1 .7116-4.8381 7.234 7.234 0 0 1 3.6343-3.2783l.3995.9546a6.255 6.255 0 0 0-3.1117 2.8334 6.24 6.24 0 0 0-.6087 4.1606 6.247 6.247 0 0 0 2.1701 3.6036 6.265 6.265 0 0 0 3.966 1.4148c1.446 0 2.8473-.5 3.9659-1.4148a6.247 6.247 0 0 0 2.1701-3.6036 6.24 6.24 0 0 0-.6087-4.1606 6.255 6.255 0 0 0-3.1117-2.8334l.3995-.9539a7.233 7.233 0 0 1 3.6351 3.2778 7.217 7.217 0 0 1 .7119 4.8385 7.224 7.224 0 0 1-2.5375 4.1831 7.245 7.245 0 0 1-4.6246 1.6119m3.1257-18.0853h-3.1257v-1.0331h2.0858v-1.0336h-4.1717v1.0336h1.0397v1.0331h-2.086v-3.1017h6.2579zm-3.1257 20.6717a9.837 9.837 0 0 1-6.7184-2.5734 9.806 9.806 0 0 1-3.161-6.4539 9.8 9.8 0 0 1 2.0912-6.8741 9.83 9.83 0 0 1 6.222-3.6088v-.6425h1.0399v1.5572l-.4628.0507a8.87 8.87 0 0 0-5.7853 3.0822 8.843 8.843 0 0 0-2.082 6.2082 8.847 8.847 0 0 0 2.7604 5.9386 8.875 8.875 0 0 0 6.0928 2.4209 8.875 8.875 0 0 0 6.0927-2.4209 8.846 8.846 0 0 0 2.7604-5.9386 8.843 8.843 0 0 0-2.0818-6.2082 8.87 8.87 0 0 0-5.7855-3.0822l-.4628-.0507V14.118h1.0463v.6425a9.83 9.83 0 0 1 6.222 3.6088 9.8 9.8 0 0 1 2.0912 6.8741 9.806 9.806 0 0 1-3.161 6.4539 9.837 9.837 0 0 1-6.7183 2.5734m0-7.7504a2.074 2.074 0 0 1-1.1464-.3558 2.07 2.07 0 0 1-.7558-.9309 2.064 2.064 0 0 1 .4585-2.2478 2.0726 2.0726 0 0 1 3.1817.3202c.2269.3396.3478.7387.3478 1.1469a2.073 2.073 0 0 1-.6149 1.4634 2.08 2.08 0 0 1-1.4709.6015zm0-3.1017a1.037 1.037 0 0 0-.5741.1764 1.0325 1.0325 0 0 0-.152 1.5898 1.0366 1.0366 0 0 0 1.5917-.1587 1.03 1.03 0 0 0 .1742-.5738 1.04 1.04 0 0 0-.3062-.7317 1.043 1.043 0 0 0-.7336-.3039zm.5198-.5165h-1.0461v-5.6843h1.0461zm0 4.6506h-1.0461v-1.5508h1.0461zm7.4562-11.0059-1.5661-1.5502.7418-.7304 1.5598 1.5502zm-1.8704 1.0331-.7354-.7305 1.0397-1.033.7418.7304zm-14.088-1.0331-.7354-.7304 1.566-1.5502.7354.7304zm1.8703 1.0331-1.0397-1.0331.7354-.7304 1.0461 1.033z" clip-rule="evenodd"/><path fill="#cac63b" d="M9.4727 54.0605h-.9375v-4.121l-.8711.9062-.543-.5703 1.5351-1.5508h.8165zm3.8242-.0585q-.3594.1562-.793.1562t-.7969-.1562q-.3594-.1602-.6054-.4258-.2422-.2695-.4141-.625a3.3 3.3 0 0 1-.2461-.75 4.3 4.3 0 0 1-.0742-.8047q0-.4141.0742-.8008a3.22 3.22 0 0 1 .2461-.7461q.1719-.3555.4141-.6211.246-.2656.6054-.4219.3633-.16.7969-.1601t.793.1601q.3633.1563.6054.4219.2461.2656.4141.6211.1719.3555.2461.7461.0781.3867.0781.8008t-.0781.8047a3.05 3.05 0 0 1-.2461.75q-.168.3555-.4141.625-.2421.2656-.6054.4258m-1.3438-.8321q.2344.1563.5508.1563t.5508-.1563q.2343-.1562.3672-.4297.1367-.2773.1992-.6093.0664-.336.0664-.7344t-.0664-.7305q-.0625-.3359-.1992-.6094-.1329-.2734-.3672-.4257-.2344-.1563-.5508-.1563t-.5508.1563q-.2343.1523-.3711.4257-.1327.2735-.1992.6094-.0625.3321-.0625.7305t.0625.7344q.0664.332.1992.6093.1368.2735.3711.4297m3.9922-1.9101q-.2304 0-.3984-.1641-.1641-.168-.1641-.3945t.168-.3946q.168-.1679.3945-.1679t.3906.1679q.168.164.168.3946 0 .2265-.168.3945-.164.1641-.3906.1641m.3906 2.7265q-.164.1641-.3906.1641t-.3945-.1641q-.168-.168-.168-.3984 0-.2266.1641-.3906.168-.168.3984-.168.2266 0 .3906.1641.168.164.168.3945 0 .2304-.168.3984m3.8516.0157q-.3594.1562-.793.1562t-.7968-.1562q-.3594-.1602-.6055-.4258-.2422-.2695-.4141-.625a3.3 3.3 0 0 1-.2461-.75 4.3 4.3 0 0 1-.0742-.8047q0-.4141.0742-.8008a3.22 3.22 0 0 1 .2461-.7461q.1719-.3555.4141-.6211.246-.2656.6055-.4219.3632-.16.7968-.1601t.793.1601q.3633.1563.6055.4219.246.2656.414.6211.1719.3555.2461.7461.0781.3867.0781.8008t-.0781.8047a3.05 3.05 0 0 1-.2461.75q-.168.3555-.414.625-.2422.2656-.6055.4258m-1.3437-.8321q.2343.1563.5507.1563.3165 0 .5508-.1563.2344-.1562.3672-.4297.1367-.2773.1992-.6093.0664-.336.0664-.7344t-.0664-.7305q-.0625-.3359-.1992-.6094-.1328-.2734-.3672-.4257-.2343-.1563-.5508-.1563t-.5507.1563q-.2345.1523-.3711.4257-.1329.2735-.1993.6094-.0624.3321-.0625.7305 0 .3984.0625.7344.0664.332.1993.6093.1366.2735.3711.4297m6.2734.8321q-.3594.1562-.793.1562t-.7969-.1562q-.3593-.1602-.6054-.4258-.2422-.2695-.4141-.625a3.3 3.3 0 0 1-.2461-.75 4.3 4.3 0 0 1-.0742-.8047q0-.4141.0742-.8008a3.22 3.22 0 0 1 .2461-.7461q.1719-.3555.4141-.6211.246-.2656.6054-.4219.3634-.16.7969-.1601t.793.1601q.3633.1563.6055.4219.246.2656.414.6211.1719.3555.2461.7461.0781.3867.0781.8008t-.0781.8047a3.05 3.05 0 0 1-.2461.75q-.168.3555-.414.625-.2422.2656-.6055.4258m-1.3438-.8321q.2345.1563.5508.1563.3165 0 .5508-.1563t.3672-.4297q.1366-.2773.1992-.6093.0664-.336.0664-.7344t-.0664-.7305q-.0625-.3359-.1992-.6094-.1329-.2734-.3672-.4257-.2343-.1563-.5508-.1563t-.5508.1563q-.2343.1523-.3711.4257-.1327.2735-.1992.6094-.0625.3321-.0625.7305t.0625.7344q.0665.332.1992.6093.1368.2735.3711.4297m7.2305-.6836H29.082v-.7226h1.9219zm6.5586 1.5742h-3.8672v-.7343q.5664-.4297.9375-.7188t.7266-.5898q.3555-.3008.5586-.5117a4.6 4.6 0 0 0 .3672-.4297q.164-.2188.2265-.4063a1.13 1.13 0 0 0 .0664-.3789q0-.3945-.2851-.6055-.2852-.2109-.6836-.2109-.879 0-1.4414.6406l-.543-.6132q.3438-.4141.8672-.6329a2.805 2.805 0 0 1 1.1016-.2226q.5272 0 .957.1875.4335.1836.7031.5664.2734.379.2734.8906 0 .3594-.1562.7188-.1562.3554-.4805.7265-.3242.3672-.7226.7188-.3985.3476-.9766.7812h2.3711zm3.75-.0585q-.3594.1562-.793.1562t-.7968-.1562q-.3595-.1602-.6055-.4258-.2422-.2695-.4141-.625a3.3 3.3 0 0 1-.2461-.75 4.3 4.3 0 0 1-.0742-.8047q0-.4141.0742-.8008a3.22 3.22 0 0 1 .2461-.7461q.1719-.3555.4141-.6211.246-.2656.6055-.4219.3632-.16.7968-.1601t.793.1601q.3633.1563.6055.4219.246.2656.414.6211.1719.3555.2461.7461.0781.3867.0781.8008t-.0781.8047a3.05 3.05 0 0 1-.2461.75q-.168.3555-.414.625-.2422.2656-.6055.4258m-1.3437-.8321q.2343.1563.5507.1563.3165 0 .5508-.1563.2345-.1562.3672-.4297.1367-.2773.1992-.6093.0664-.336.0664-.7344t-.0664-.7305q-.0625-.3359-.1992-.6094-.1328-.2734-.3672-.4257-.2343-.1563-.5508-.1563t-.5507.1563q-.2345.1523-.3711.4257-.1329.2735-.1993.6094-.0625.3321-.0625.7305t.0625.7344q.0664.332.1993.6093.1366.2735.3711.4297m3.9921-1.9101q-.2304 0-.3984-.1641-.1641-.168-.1641-.3945t.168-.3946q.168-.1679.3945-.1679t.3907.1679q.1679.164.1679.3946 0 .2265-.1679.3945-.164.1641-.3907.1641m.3907 2.7265q-.164.1641-.3907.1641-.2265 0-.3945-.1641-.168-.168-.168-.3984 0-.2266.1641-.3906.168-.168.3984-.168.2266 0 .3907.1641.1679.164.1679.3945 0 .2304-.1679.3984m3.8515.0157q-.3594.1562-.7929.1562t-.7969-.1562q-.3594-.1602-.6055-.4258-.2422-.2695-.414-.625a3.28 3.28 0 0 1-.2461-.75 4.3 4.3 0 0 1-.0743-.8047q0-.4141.0743-.8008a3.2 3.2 0 0 1 .2461-.7461q.1718-.3555.414-.6211.2461-.2656.6055-.4219.3633-.16.7969-.1601.4335 0 .7929.1601.3633.1563.6055.4219.2461.2656.4141.6211.1718.3555.2461.7461.078.3867.0781.8008 0 .414-.0781.8047a3.06 3.06 0 0 1-.2461.75q-.168.3555-.4141.625-.2422.2656-.6055.4258m-1.3437-.8321q.2343.1563.5508.1563t.5507-.1563q.2345-.1562.3672-.4297.1368-.2773.1992-.6093.0665-.336.0665-.7344t-.0665-.7305q-.0624-.3359-.1992-.6094-.1328-.2734-.3672-.4257-.2343-.1563-.5507-.1563-.3165 0-.5508.1563-.2345.1523-.3711.4257-.1329.2735-.1992.6094-.0625.3321-.0625.7305t.0625.7344q.0663.332.1992.6093.1366.2735.3711.4297m6.2734.8321q-.3594.1562-.793.1562-.4335 0-.7968-.1562-.3594-.1602-.6055-.4258-.2422-.2695-.4141-.625a3.3 3.3 0 0 1-.2461-.75 4.3 4.3 0 0 1-.0742-.8047q0-.4141.0742-.8008a3.22 3.22 0 0 1 .2461-.7461q.1719-.3555.4141-.6211.2461-.2656.6055-.4219.3633-.16.7968-.1601.4336 0 .793.1601.3633.1563.6055.4219.246.2656.414.6211a2.98 2.98 0 0 1 .2461.7461q.0782.3867.0782.8008t-.0782.8047a3.05 3.05 0 0 1-.2461.75q-.168.3555-.414.625-.2422.2656-.6055.4258m-1.3437-.8321q.2343.1563.5507.1563.3165 0 .5508-.1563.2345-.1562.3672-.4297.1368-.2773.1992-.6093.0664-.336.0664-.7344t-.0664-.7305q-.0624-.3359-.1992-.6094-.1328-.2734-.3672-.4257-.2343-.1563-.5508-.1563t-.5507.1563q-.2345.1523-.3711.4257-.1329.2735-.1992.6094-.0626.3321-.0626.7305t.0626.7344q.0663.332.1992.6093.1366.2735.3711.4297M5.0591 41.1045h53.1195v.6324H5.0591z"/></g></svg>