<svg xmlns="http://www.w3.org/2000/svg" width="16" height="15" fill="none"><path fill="#000" fill-opacity=".4" d="M10.937 11.697 8.39 10.395A.72.72 0 0 1 8 9.749v-.922a5 5 0 0 0 .192-.259c.33-.477.595-1.009.787-1.582.377-.176.62-.556.62-.986V4.91c0-.264-.095-.518-.266-.717v-1.45c.015-.15.074-1.043-.558-1.78C8.228.324 7.34 0 6.133 0S4.04.324 3.491.963c-.631.736-.573 1.63-.558 1.78v1.45c-.17.199-.266.453-.266.716v1.09c0 .333.147.642.399.849.244.989.755 1.734.934 1.973v.903c0 .264-.14.506-.367.633l-2.38 1.327A2.47 2.47 0 0 0 0 13.844V15h12.267v-1.103c0-.937-.51-1.78-1.33-2.2"/><path fill="#fc9b36" d="M10.937 11.697 8.39 10.395A.72.72 0 0 1 8 9.749v-.922a5 5 0 0 0 .192-.259c.33-.477.595-1.009.787-1.582.377-.176.62-.556.62-.986V4.91c0-.264-.095-.518-.266-.717v-1.45c.015-.15.074-1.043-.558-1.78C8.228.324 7.34 0 6.133 0S4.04.324 3.491.963c-.631.736-.573 1.63-.558 1.78v1.45c-.17.199-.266.453-.266.716v1.09c0 .333.147.642.399.849.244.989.755 1.734.934 1.973v.903c0 .264-.14.506-.367.633l-2.38 1.327A2.47 2.47 0 0 0 0 13.844V15h12.267v-1.103c0-.937-.51-1.78-1.33-2.2"/><path fill="#000" fill-opacity=".4" d="m14.791 12.007-2.593-1.148a.54.54 0 0 1-.187-.21l1.74-.002s.1.01.256.01c.286 0 .704-.033 1.067-.193a.8.8 0 0 0 .445-.52.82.82 0 0 0-.114-.688c-.497-.724-1.658-2.615-1.694-4.533-.001-.033-.106-3.296-3.256-3.322a4 4 0 0 0-.9.113c.212.57.192 1.082.178 1.248v1.29c.173.252.267.55.267.857v1.09c0 .521-.268 1.002-.696 1.272A6.7 6.7 0 0 1 8.4 8.97v.78c0 .12.063.225.168.279l2.548 1.302a2.86 2.86 0 0 1 1.55 2.567V15H16v-1.008c0-.844-.458-1.601-1.209-1.985"/><path fill="#fc9b36" d="m14.791 12.007-2.593-1.148a.54.54 0 0 1-.187-.21l1.74-.002s.1.01.256.01c.286 0 .704-.033 1.067-.193a.8.8 0 0 0 .445-.52.82.82 0 0 0-.114-.688c-.497-.724-1.658-2.615-1.694-4.533-.001-.033-.106-3.296-3.256-3.322a4 4 0 0 0-.9.113c.212.57.192 1.082.178 1.248v1.29c.173.252.267.55.267.857v1.09c0 .521-.268 1.002-.696 1.272A6.7 6.7 0 0 1 8.4 8.97v.78c0 .12.063.225.168.279l2.548 1.302a2.86 2.86 0 0 1 1.55 2.567V15H16v-1.008c0-.844-.458-1.601-1.209-1.985"/></svg>