<svg xmlns="http://www.w3.org/2000/svg" width="35" height="35" fill="none"><path fill="#5b7ea2" d="M17.5 0C7.8349 0 0 7.8349 0 17.5S7.8349 35 17.5 35 35 27.1651 35 17.5 27.1651 0 17.5 0m6.7302 19.744s1.5477 1.5276 1.9287 2.2367c.0109.0146.0164.0292.02.0365.155.2607.1914.463.1149.6143-.1277.2516-.5652.3755-.7146.3865h-2.7344c-.1896 0-.587-.0493-1.0682-.381-.3701-.2589-.7347-.6836-1.0901-1.0974-.5305-.6162-.9899-1.1485-1.4529-1.1485-.0583 0-.1185.0092-.1732.0274-.35.113-.7984.6125-.7984 1.9432 0 .4156-.3281.6544-.5597.6544H16.45c-.4266 0-2.6487-.1494-4.6174-2.2257-2.40994-2.543-4.57921-7.6435-4.59744-7.6909-.13672-.33.14583-.5068.4539-.5068h2.76174c.3682 0 .4885.2242.5724.4229.0984.2315.4594 1.1521 1.0518 2.1875.9607 1.688 1.5495 2.3735 2.0216 2.3735.0893 0 .1714-.0237.2534-.0657.6161-.3427.5013-2.5393.474-2.995 0-.0857-.0019-.9826-.3172-1.4128-.2261-.3117-.6107-.4302-.844-.4739.0601-.0894.195-.2261.3627-.3081.4229-.2115 1.1849-.2425 1.9414-.2425h.4211c.8203.011 1.0318.0638 1.3289.1386.6016.144.6143.5323.5615 1.8612-.0164.3773-.0328.8039-.0328 1.307 0 .1094-.0055.2261-.0055.35-.0182.6763-.0401 1.4438.4375 1.7591.062.0383.1331.0602.2078.0602.1659 0 .6654 0 2.018-2.3206.5924-1.0245 1.0518-2.2331 1.0846-2.3224.0274-.0474.1076-.1932.2024-.2497.0747-.0438.175-.0529.226-.0529h3.2466c.3537 0 .5961.0529.6417.1896.0802.2169-.0146.8786-1.4966 2.8857-.2498.3317-.4703.6216-.6617.8732-1.3435 1.7609-1.3435 1.8502.0838 3.1864"/></svg>