<svg xmlns="http://www.w3.org/2000/svg" width="21" height="20" fill="none" viewBox="0 0 21 20"><path fill="#cac63b" fill-opacity=".8" d="M17.747 2.888C15.751.963 13.2 0 10.427 0 4.77 0 .11 4.385.11 9.947c0 1.71.444 3.529 1.331 5.026L0 20l5.435-1.283c1.442.855 3.217 1.176 4.88 1.176 5.657 0 10.316-4.385 10.316-9.946.11-2.567-.998-5.134-2.884-7.06m-7.32 15.4a9.14 9.14 0 0 1-4.437-1.176l-.222-.214-3.328.856.888-2.995-.222-.213c-.777-1.39-1.22-2.888-1.22-4.492-.111-4.493 3.77-8.343 8.54-8.343 2.33 0 4.437.856 6.101 2.46 1.553 1.497 2.551 3.636 2.551 5.882 0 4.493-3.882 8.236-8.652 8.236m4.769-6.202-1.775-.856c-.222-.107-.443-.107-.554.107-.222.214-.666.856-.888.963-.222.213-.222.213-.554.106s-.999-.427-2.108-1.283c-.776-.642-1.33-1.497-1.442-1.711-.222-.214 0-.428.111-.535l.444-.428c.11-.107.222-.214.222-.32.11-.215.11-.215 0-.428 0-.214-.555-1.39-.777-1.926-.222-.427-.443-.427-.554-.427h-.444c-.222 0-.555.107-.776.32-.222.214-.888.856-.888 2.14 0 1.283.998 2.46.998 2.566.111.214 1.775 2.674 4.437 3.744.555.214 1.11.428 1.442.534.555.214 1.22.214 1.553.107.444-.107 1.553-.641 1.775-1.176s.222-1.07.222-1.177c-.111-.107-.333-.213-.444-.32"/></svg>