<svg xmlns="http://www.w3.org/2000/svg" width="35" height="35" fill="none"><path fill="#fa141b" d="M16.6352 13.0199c.1201.0721.2763.1201.4204.1081.1561.012.3123-.024.4444-.1081.1081-.0601.1682-.1681.1682-.3003v-2.5223c0-.1081-.0721-.1922-.1682-.2402-.1321-.07206-.2883-.09608-.4324-.09608-.1441-.01202-.2762.02402-.4084.09608-.0961.048-.1561.1321-.1561.2402v2.5223c-.012.1201.036.2282.1321.3003M14.8456 24.058c-.1081.0961-.2282.1681-.3604.2282-.096.048-.2041.0841-.3243.0961-.084.012-.1681-.012-.2402-.0721-.048-.06-.072-.1441-.072-.2162v-3.315h-1.1531v3.6033c-.012.2162.0601.4204.2042.5885.1681.1442.3843.2162.6005.1922.2283 0 .4565-.048.6727-.1441.2402-.0961.4684-.2282.6606-.3964v.4684h1.153l.012-4.3119h-1.153zM9.42862 20.4547h1.10498v4.5762h1.069v-4.5762h1.093l.012-.7807H9.42862z"/><path fill="#fa141b" d="M17.5 0C7.83116 0 0 7.83116 0 17.5 0 27.1688 7.83116 35 17.5 35 27.1688 35 35 27.1688 35 17.5 35 7.83116 27.1568 0 17.5 0m2.5223 13.2121V8.76802h1.033v4.08368c-.0121.0961.012.1922.072.2763.0481.0601.1321.0961.2042.0841.1081-.012.2042-.0481.2883-.1081.1201-.0841.2282-.1802.3123-.2883V8.76802h1.0329v5.30888h-1.0329v-.5886c-.1682.2042-.3724.3724-.6006.4925-.2042.1081-.4084.2282-.6005.2282-.2162-.012-.4084-.1081-.5285-.2883-.1322-.2042-.2042-.4564-.1802-.7086m-4.7083-3.1469c-.012-.38435.1802-.73267.4925-.94886.3242-.24022.7687-.34832 1.3212-.34832.4444-.02403.8768.1081 1.2371.37234.3123.22821.4924.57652.4804.96084v2.6545c.012.3963-.1561.7807-.4684 1.0329-.3723.2883-.8288.4324-1.2972.4204-.4684.012-.9128-.1441-1.2731-.4444-.3123-.2522-.4925-.6366-.4805-1.045v-2.6544zm-3.0628-3.49519.8408 3.0628h.0961l.8047-3.0628h1.3212l-1.5134 4.48009v3.1829h-1.3092v-3.0388L10.93 6.57001zM26.9166 23.8658c0 1.9098-1.6095 3.4592-3.5913 3.4592H10.8339c-1.98181 0-3.59128-1.5494-3.59128-3.4592v-2.9186c0-1.9098 1.60947-3.4592 3.59128-3.4592h12.4914c1.9818 0 3.5913 1.5494 3.5913 3.4592z"/><path fill="#fa141b" d="M20.3466 22.0522c.024-.2763-.0841-.5525-.2883-.7447-.1921-.1682-.4684-.2522-.8287-.2522-.1802 0-.3603.036-.5285.096-.1802.0721-.3363.1562-.4925.2763V19.686h-1.153v5.417h1.153v-.3003c.1442.1201.3123.2162.4805.2762.1922.0601.3963.0841.6005.0841.3363 0 .6006-.0721.7687-.2282.1802-.1682.2883-.4084.2643-.6486zm-1.1651 2.1019c.012.0961-.024.2042-.0961.2762-.084.0601-.1921.0961-.3002.0841l-.2763-.048c-.0961-.0361-.1922-.0841-.2642-.1442V21.836l.2402-.1201.2402-.0361c.1201 0 .2523.0361.3483.1081.0841.0841.1322.1922.1201.3003v2.0659zM23.6016 23.8298c0 .2402-.0361.3964-.1081.4684-.1081.0841-.2523.1201-.3844.1081-.1321.012-.2762-.036-.3723-.1201-.0841-.1321-.1201-.3003-.1081-.4564v-.7807h2.1139v-1.057c.024-.3483-.1321-.6846-.4084-.9008-.2762-.2042-.6726-.3123-1.177-.3123-.4925 0-.9009.1081-1.2131.3363-.3003.1922-.4805.5285-.4685.8768v1.8617c-.012.3603.1442.7087.4324.9369.2883.2282.6726.3363 1.1771.3363.5525 0 .9609-.1081 1.2491-.3243.2763-.2162.4204-.5405.4204-.9609v-.2162h-1.141v.2042zm-.8168-2.21c.1081-.0841.2403-.1322.3844-.1081.1321-.012.2642.024.3723.1081.0841.1081.1321.2402.1201.3723v.4204h-.9849v-.4324c-.024-.1321.012-.2642.1081-.3603"/></svg>