<svg xmlns="http://www.w3.org/2000/svg" width="13" height="22" fill="none"><path fill="#2e75b3" d="M12.76 3.32a.46.46 0 0 0-.298-.546l-2.425-.813V.458A.457.457 0 0 0 9.58 0H3.194a.457.457 0 0 0-.457.458v1.503l-2.425.813a.46.46 0 0 0-.298.545l1.801 7.24L0 19.71C0 21.212 3.213 22 6.387 22s6.387-.787 6.378-2.382l-1.805-9.066zM5.476 4.582c0-.505.41-.916.912-.916.503 0 .913.411.913.916v2.75c0 .506-.41.917-.913.917a.916.916 0 0 1-.912-.917zm5.03 15c-.368.137-1.754.584-4.118.584s-3.75-.447-4.118-.585a.46.46 0 0 1-.289-.52l.802-4.027a.46.46 0 0 1 .448-.368h6.315c.217 0 .404.154.447.368l.802 4.028a.46.46 0 0 1-.289.52"/></svg>